999
dxflib 2.0.4.8
  0
SECTION
  2
HEADER
  9
$ACADVER
  1
AC1015
  9
$HANDSEED
  5
FFFF
  9
$DIMASZ
 40
2.5
  9
$MEASUREMENT
 70
1
  9
$DIMGAP
 40
0.625
  9
$DIMEXO
 40
0.625
  9
$INSUNITS
 70
4
  9
$DIMTXT
 40
2.5
  9
$DIMSTYLE
  2
Standard
  9
$PLIMMAX
 10
210.0
 20
297.0
  9
$PLIMMIN
 10
0.0
 20
0.0
  9
$DIMEXE
 40
1.25
  0
ENDSEC
  0
SECTION
  2
TABLES
  0
TABLE
  2
VPORT
  5
8
100
AcDbSymbolTable
 70
1
  0
VPORT
  5
30
100
AcDbSymbolTableRecord
100
AcDbViewportTableRecord
  2
*Active
 70
0
 10
0.0
 20
0.0
 11
1.0
 21
1.0
 12
286.3055555555554861
 22
148.5
 13
0.0
 23
0.0
 14
10.0
 24
10.0
 15
10.0
 25
10.0
 16
0.0
 26
0.0
 36
1.0
 17
0.0
 27
0.0
 37
0.0
 40
297.0
 41
1.92798353909465
 42
50.0
 43
0.0
 44
0.0
 50
0.0
 51
0.0
 71
0
 72
100
 73
1
 74
3
 75
1
 76
1
 77
0
 78
0
281
0
 65
1
110
0.0
120
0.0
130
0.0
111
1.0
121
0.0
131
0.0
112
0.0
122
1.0
132
0.0
 79
0
146
0.0
  0
ENDTAB
  0
TABLE
  2
LTYPE
  5
5
100
AcDbSymbolTable
 70
21
  0
LTYPE
  5
14
100
AcDbSymbolTableRecord
100
AcDbLinetypeTableRecord
  2
ByBlock
 70
0
  3

 72
65
 73
0
 40
0.0
  0
LTYPE
  5
15
100
AcDbSymbolTableRecord
100
AcDbLinetypeTableRecord
  2
ByLayer
 70
0
  3

 72
65
 73
0
 40
0.0
  0
LTYPE
  5
16
100
AcDbSymbolTableRecord
100
AcDbLinetypeTableRecord
  2
CONTINUOUS
 70
0
  3
Solid line
 72
65
 73
0
 40
0.0
  0
LTYPE
  5
31
100
AcDbSymbolTableRecord
100
AcDbLinetypeTableRecord
  2
DOT
 70
0
  3
Dot . . . . . . . . . . . . . . . . . . . . . .
 72
65
 73
2
 40
6.3499999999999996
 49
0.0
 74
0
 49
-6.3499999999999996
 74
0
  0
LTYPE
  5
32
100
AcDbSymbolTableRecord
100
AcDbLinetypeTableRecord
  2
DOT2
 70
0
  3
Dot (.5x) .....................................
 72
65
 73
2
 40
3.1749999999999998
 49
0.0
 74
0
 49
-3.1749999999999998
 74
0
  0
LTYPE
  5
33
100
AcDbSymbolTableRecord
100
AcDbLinetypeTableRecord
  2
DOTX2
 70
0
  3
Dot (2x) .  .  .  .  .  .  .  .  .  .  .  .  .
 72
65
 73
2
 40
12.6999999999999993
 49
0.0
 74
0
 49
-12.6999999999999993
 74
0
  0
LTYPE
  5
34
100
AcDbSymbolTableRecord
100
AcDbLinetypeTableRecord
  2
DASHED
 70
0
  3
Dashed __ __ __ __ __ __ __ __ __ __ __ __ __ _
 72
65
 73
2
 40
19.0500000000000007
 49
12.6999999999999993
 74
0
 49
-6.3499999999999996
 74
0
  0
LTYPE
  5
35
100
AcDbSymbolTableRecord
100
AcDbLinetypeTableRecord
  2
DASHED2
 70
0
  3
Dashed (.5x) _ _ _ _ _ _ _ _ _ _ _ _ _ _ _ _ _
 72
65
 73
2
 40
9.5250000000000004
 49
6.3499999999999996
 74
0
 49
-3.1749999999999998
 74
0
  0
LTYPE
  5
36
100
AcDbSymbolTableRecord
100
AcDbLinetypeTableRecord
  2
DASHEDX2
 70
0
  3
Dashed (2x) ____  ____  ____  ____  ____  ___
 72
65
 73
2
 40
38.1000000000000014
 49
25.3999999999999986
 74
0
 49
-12.6999999999999993
 74
0
  0
LTYPE
  5
37
100
AcDbSymbolTableRecord
100
AcDbLinetypeTableRecord
  2
DASHDOT
 70
0
  3
Dash dot __ . __ . __ . __ . __ . __ . __ . __
 72
65
 73
4
 40
25.3999999999999986
 49
12.6999999999999993
 74
0
 49
-6.3499999999999996
 74
0
 49
0.0
 74
0
 49
-6.3499999999999996
 74
0
  0
LTYPE
  5
38
100
AcDbSymbolTableRecord
100
AcDbLinetypeTableRecord
  2
DASHDOT2
 70
0
  3
Dash dot (.5x) _._._._._._._._._._._._._._._.
 72
65
 73
4
 40
12.6999999999999993
 49
6.3499999999999996
 74
0
 49
-3.1749999999999998
 74
0
 49
0.0
 74
0
 49
-3.1749999999999998
 74
0
  0
LTYPE
  5
39
100
AcDbSymbolTableRecord
100
AcDbLinetypeTableRecord
  2
DASHDOTX2
 70
0
  3
Dash dot (2x) ____  .  ____  .  ____  .  ___
 72
65
 73
4
 40
50.7999999999999972
 49
25.3999999999999986
 74
0
 49
-12.6999999999999993
 74
0
 49
0.0
 74
0
 49
-12.6999999999999993
 74
0
  0
LTYPE
  5
3A
100
AcDbSymbolTableRecord
100
AcDbLinetypeTableRecord
  2
DIVIDE
 70
0
  3
Divide ____ . . ____ . . ____ . . ____ . . ____
 72
65
 73
6
 40
31.75
 49
12.6999999999999993
 74
0
 49
-6.3499999999999996
 74
0
 49
0.0
 74
0
 49
-6.3499999999999996
 74
0
 49
0.0
 74
0
 49
-6.3499999999999996
 74
0
  0
LTYPE
  5
3B
100
AcDbSymbolTableRecord
100
AcDbLinetypeTableRecord
  2
DIVIDE2
 70
0
  3
Divide (.5x) __..__..__..__..__..__..__..__.._
 72
65
 73
6
 40
15.875
 49
6.3499999999999996
 74
0
 49
-3.1749999999999998
 74
0
 49
0.0
 74
0
 49
-3.1749999999999998
 74
0
 49
0.0
 74
0
 49
-3.1749999999999998
 74
0
  0
LTYPE
  5
3C
100
AcDbSymbolTableRecord
100
AcDbLinetypeTableRecord
  2
DIVIDEX2
 70
0
  3
Divide (2x) ________  .  .  ________  .  .  _
 72
65
 73
6
 40
63.5
 49
25.3999999999999986
 74
0
 49
-12.6999999999999993
 74
0
 49
0.0
 74
0
 49
-12.6999999999999993
 74
0
 49
0.0
 74
0
 49
-12.6999999999999993
 74
0
  0
LTYPE
  5
3D
100
AcDbSymbolTableRecord
100
AcDbLinetypeTableRecord
  2
CENTER
 70
0
  3
Center ____ _ ____ _ ____ _ ____ _ ____ _ ____
 72
65
 73
4
 40
50.7999999999999972
 49
31.75
 74
0
 49
-6.3499999999999996
 74
0
 49
6.3499999999999996
 74
0
 49
-6.3499999999999996
 74
0
  0
LTYPE
  5
3E
100
AcDbSymbolTableRecord
100
AcDbLinetypeTableRecord
  2
CENTER2
 70
0
  3
Center (.5x) ___ _ ___ _ ___ _ ___ _ ___ _ ___
 72
65
 73
4
 40
28.5749999999999993
 49
19.0500000000000007
 74
0
 49
-3.1749999999999998
 74
0
 49
3.1749999999999998
 74
0
 49
-3.1749999999999998
 74
0
  0
LTYPE
  5
3F
100
AcDbSymbolTableRecord
100
AcDbLinetypeTableRecord
  2
CENTERX2
 70
0
  3
Center (2x) ________  __  ________  __  _____
 72
65
 73
4
 40
101.5999999999999943
 49
63.5
 74
0
 49
-12.6999999999999993
 74
0
 49
12.6999999999999993
 74
0
 49
-12.6999999999999993
 74
0
  0
LTYPE
  5
40
100
AcDbSymbolTableRecord
100
AcDbLinetypeTableRecord
  2
BORDER
 70
0
  3
Border __ __ . __ __ . __ __ . __ __ . __ __ .
 72
65
 73
6
 40
44.4500000000000028
 49
12.6999999999999993
 74
0
 49
-6.3499999999999996
 74
0
 49
12.6999999999999993
 74
0
 49
-6.3499999999999996
 74
0
 49
0.0
 74
0
 49
-6.3499999999999996
 74
0
  0
LTYPE
  5
41
100
AcDbSymbolTableRecord
100
AcDbLinetypeTableRecord
  2
BORDER2
 70
0
  3
Border (.5x) __.__.__.__.__.__.__.__.__.__.__.
 72
65
 73
6
 40
22.2250000000000014
 49
6.3499999999999996
 74
0
 49
-3.1749999999999998
 74
0
 49
6.3499999999999996
 74
0
 49
-3.1749999999999998
 74
0
 49
0.0
 74
0
 49
-3.1749999999999998
 74
0
  0
LTYPE
  5
42
100
AcDbSymbolTableRecord
100
AcDbLinetypeTableRecord
  2
BORDERX2
 70
0
  3
Border (2x) ____  ____  .  ____  ____  .  ___
 72
65
 73
6
 40
88.9000000000000057
 49
25.3999999999999986
 74
0
 49
-12.6999999999999993
 74
0
 49
25.3999999999999986
 74
0
 49
-12.6999999999999993
 74
0
 49
0.0
 74
0
 49
-12.6999999999999993
 74
0
  0
ENDTAB
  0
TABLE
  2
LAYER
  5
2
100
AcDbSymbolTable
 70
2
  0
LAYER
  5
10
100
AcDbSymbolTableRecord
100
AcDbLayerTableRecord
  2
0
 70
0
 62
7
  6
CONTINUOUS
390
F
  0
LAYER
  5
43
100
AcDbSymbolTableRecord
100
AcDbLayerTableRecord
  2
Layer_1
 70
0
 62
7
  6
CONTINUOUS
390
F
  0
ENDTAB
  0
TABLE
  2
STYLE
  5
3
100
AcDbSymbolTable
 70
1
  0
STYLE
  5
11
100
AcDbSymbolTableRecord
100
AcDbTextStyleTableRecord
  2
Standard
 70
0
 40
0.0
 41
0.75
 50
0.0
 71
0
 42
2.5
  3
txt
  4

  0
ENDTAB
  0
TABLE
  2
VIEW
  5
6
100
AcDbSymbolTable
 70
0
  0
ENDTAB
  0
TABLE
  2
UCS
  5
7
100
AcDbSymbolTable
 70
0
  0
ENDTAB
  0
TABLE
  2
APPID
  5
9
100
AcDbSymbolTable
 70
1
  0
APPID
  5
12
100
AcDbSymbolTableRecord
100
AcDbRegAppTableRecord
  2
ACAD
 70
0
  0
ENDTAB
  0
TABLE
  2
DIMSTYLE
  5
A
100
AcDbSymbolTable
 70
1
100
AcDbDimStyleTable
 71
0
  0
DIMSTYLE
105
27
100
AcDbSymbolTableRecord
100
AcDbDimStyleTableRecord
  2
Standard
 41
2.5
 42
0.625
 43
3.75
 44
1.25
 70
0
 73
0
 74
0
 77
1
 78
8
140
2.5
141
2.5
143
0.03937007874016
147
0.625
171
3
172
1
271
2
272
2
274
3
278
44
283
0
284
8
340
11
  0
ENDTAB
  0
TABLE
  2
BLOCK_RECORD
  5
1
100
AcDbSymbolTable
 70
1
  0
BLOCK_RECORD
  5
1F
100
AcDbSymbolTableRecord
100
AcDbBlockTableRecord
  2
*Model_Space
340
22
  0
BLOCK_RECORD
  5
1B
100
AcDbSymbolTableRecord
100
AcDbBlockTableRecord
  2
*Paper_Space
340
1E
  0
BLOCK_RECORD
  5
23
100
AcDbSymbolTableRecord
100
AcDbBlockTableRecord
  2
*Paper_Space0
340
26
  0
ENDTAB
  0
ENDSEC
  0
SECTION
  2
BLOCKS
  0
BLOCK
  5
20
100
AcDbEntity
  8
0
100
AcDbBlockBegin
  2
*Model_Space
 70
0
 10
0.0
 20
0.0
 30
0.0
  3
*Model_Space
  1

  0
ENDBLK
  5
21
100
AcDbEntity
  8
0
100
AcDbBlockEnd
  0
BLOCK
  5
1C
100
AcDbEntity
 67
1
  8
0
100
AcDbBlockBegin
  2
*Paper_Space
 70
0
 10
0.0
 20
0.0
 30
0.0
  3
*Paper_Space
  1

  0
ENDBLK
  5
1D
100
AcDbEntity
 67
1
  8
0
100
AcDbBlockEnd
  0
BLOCK
  5
24
100
AcDbEntity
  8
0
100
AcDbBlockBegin
  2
*Paper_Space0
 70
0
 10
0.0
 20
0.0
 30
0.0
  3
*Paper_Space0
  1

  0
ENDBLK
  5
25
100
AcDbEntity
  8
0
100
AcDbBlockEnd
  0
ENDSEC
  0
SECTION
  2
ENTITIES
  0
LWPOLYLINE
  5
44
  8
Layer_1
 62
7
370
-1
  6
ByLayer
100
AcDbEntity
100
AcDbPolyline
 90
15
 70
0
 10
38.2364579999999989
 20
280.5141849999999977
 10
39.6183219999999992
 20
280.689534999999978
 10
40.5406850000000034
 20
281.2156229999999937
 10
41.0701150000000013
 20
282.143068000000028
 10
41.2466059999999999
 20
283.5225720000000251
 10
41.0701150000000013
 20
284.886464999999987
 10
40.5406850000000034
 20
285.7983459999999809
 10
39.6183219999999992
 20
286.312720000000013
 10
38.2364579999999989
 20
286.4841959999999972
 10
37.1576000000000022
 20
286.4841959999999972
 10
36.0787410000000008
 20
286.4841959999999972
 10
36.0787410000000008
 20
283.4991909999999962
 10
36.0787410000000008
 20
280.5141849999999977
 10
37.1576000000000022
 20
280.5141849999999977
 10
38.2364579999999989
 20
280.5141849999999977
  0
LWPOLYLINE
  5
45
  8
Layer_1
 62
7
370
-1
  6
ByLayer
100
AcDbEntity
100
AcDbPolyline
 90
33
 70
0
 10
36.0787410000000008
 20
276.3679119999999898
 10
36.0787410000000008
 20
271.9644440000000145
 10
36.0787410000000008
 20
267.5609769999999799
 10
33.5147890000000004
 20
267.5609769999999799
 10
30.9508359999999989
 20
267.5609769999999799
 10
30.9508359999999989
 20
279.1970420000000104
 10
30.9508359999999989
 20
290.8331079999999815
 10
34.8666899999999984
 20
290.8331079999999815
 10
38.782547000000001
 20
290.8331079999999815
 10
42.1856009999999984
 20
290.4472999999999843
 10
44.5364549999999966
 20
289.2899459999999863
 10
45.9149850000000015
 20
287.2986280000000079
 10
46.3745090000000033
 20
284.4110590000000229
 10
46.1347510000000014
 20
282.3106339999999932
 10
45.4155250000000024
 20
280.623297999999977
 10
44.2267709999999994
 20
279.3373209999999744
 10
42.5518909999999977
 20
278.4410490000000209
 10
43.5474910000000008
 20
277.9812099999999759
 10
44.429901000000001
 20
277.162873999999988
 10
45.2723299999999966
 20
275.9236619999999789
 10
46.1214429999999993
 20
274.1700749999999971
 10
47.513303999999998
 20
270.8655259999999885
 10
48.9051649999999967
 20
267.5609769999999799
 10
46.1747209999999981
 20
267.5609769999999799
 10
43.4442790000000016
 20
267.5609769999999799
 10
42.2322279999999992
 20
270.4524569999999812
 10
41.0201769999999968
 20
273.3439379999999801
 10
40.2809519999999992
 20
274.8130540000000224
 10
39.5284249999999986
 20
275.7288239999999746
 10
38.6560070000000024
 20
276.2081329999999753
 10
37.530540000000002
 20
276.3679119999999898
 10
36.8046409999999966
 20
276.3679119999999898
 10
36.0787410000000008
 20
276.3679119999999898
  0
LWPOLYLINE
  5
46
  8
Layer_1
 62
7
370
-1
  6
ByLayer
100
AcDbEntity
100
AcDbPolyline
 90
31
 70
0
 10
66.6197439999999972
 20
276.3367370000000278
 10
66.6197439999999972
 20
275.5417749999999728
 10
66.6197439999999972
 20
274.7468119999999772
 10
61.0456459999999979
 20
274.7468119999999772
 10
55.471544999999999
 20
274.7468119999999772
 10
55.8611270000000033
 20
273.0282869999999775
 10
56.6835960000000014
 20
271.8007749999999874
 10
57.9289380000000023
 20
271.0642639999999801
 10
59.5871870000000001
 20
270.8187629999999899
 10
61.1089020000000005
 20
270.9473600000000033
 10
62.6639309999999981
 20
271.3331509999999867
 10
64.2688890000000015
 20
271.9956159999999841
 10
65.9138229999999936
 20
272.923074999999983
 10
65.9138229999999936
 20
270.7720009999999888
 10
65.9138229999999936
 20
268.6209259999999972
 10
64.2222699999999946
 20
267.9662509999999997
 10
62.5307400000000015
 20
267.498626999999999
 10
60.8391870000000026
 20
267.2063610000000153
 10
59.1476550000000003
 20
267.1089390000000208
 10
55.5481270000000009
 20
267.709056999999973
 10
52.8476550000000032
 20
269.5094139999999925
 10
51.1694299999999984
 20
272.4086839999999938
 10
50.6100259999999977
 20
276.2743869999999902
 10
51.1594440000000006
 20
280.0894170000000258
 10
52.8076989999999995
 20
282.9925969999999893
 10
55.4315830000000034
 20
284.8280120000000011
 10
58.8812690000000032
 20
285.4398340000000189
 10
62.0445780000000013
 20
284.8202180000000112
 10
64.5019869999999997
 20
282.9614220000000273
 10
66.0902909999999935
 20
280.0660359999999969
 10
66.6197439999999972
 20
276.3367370000000278
  0
LWPOLYLINE
  5
47
  8
Layer_1
 62
7
370
-1
  6
ByLayer
100
AcDbEntity
100
AcDbPolyline
 90
11
 70
0
 10
61.7182650000000024
 20
278.191648999999984
 10
61.5184690000000032
 20
279.6256890000000226
 10
60.9191110000000009
 20
280.7479979999999955
 10
60.0100679999999969
 20
281.4844969999999762
 10
58.8546309999999977
 20
281.7300099999999929
 10
57.5992859999999993
 20
281.5000840000000153
 10
56.6036810000000017
 20
280.8103479999999763
 10
55.9010859999999994
 20
279.7036269999999831
 10
55.5248220000000003
 20
278.191648999999984
 10
58.6215440000000001
 20
278.191648999999984
 10
61.7182650000000024
 20
278.191648999999984
  0
LWPOLYLINE
  5
48
  8
Layer_1
 62
7
370
-1
  6
ByLayer
100
AcDbEntity
100
AcDbPolyline
 90
27
 70
0
 10
74.9842239999999975
 20
270.0861509999999726
 10
74.9842239999999975
 20
265.5034279999999853
 10
74.9842239999999975
 20
260.9207049999999981
 10
72.600081000000003
 20
260.9207049999999981
 10
70.2159379999999942
 20
260.9207049999999981
 10
70.2159379999999942
 20
272.9698379999999815
 10
70.2159379999999942
 20
285.0189720000000193
 10
72.600081000000003
 20
285.0189720000000193
 10
74.9842239999999975
 20
285.0189720000000193
 10
74.9842239999999975
 20
283.7407969999999864
 10
74.9842239999999975
 20
282.4626230000000078
 10
76.0231179999999966
 20
283.7875470000000178
 10
77.1685760000000016
 20
284.7072220000000016
 10
78.4572040000000044
 20
285.2566679999999906
 10
79.925658999999996
 20
285.4398340000000189
 10
82.436323999999999
 20
284.7968369999999823
 10
84.4541980000000052
 20
282.8678970000000277
 10
85.782779000000005
 20
279.9413349999999809
 10
86.2256560000000007
 20
276.2743869999999902
 10
85.782779000000005
 20
272.603527999999983
 10
84.4541980000000052
 20
269.6652879999999755
 10
82.436323999999999
 20
267.7480269999999791
 10
79.925658999999996
 20
267.1089390000000208
 10
78.4572040000000044
 20
267.2881949999999733
 10
77.1685760000000016
 20
267.825963999999999
 10
76.0231179999999966
 20
268.757316000000003
 10
74.9842239999999975
 20
270.0861509999999726
  0
LWPOLYLINE
  5
49
  8
Layer_1
 62
7
370
-1
  6
ByLayer
100
AcDbEntity
100
AcDbPolyline
 90
17
 70
0
 10
78.1542010000000005
 20
281.3870850000000132
 10
76.7989620000000031
 20
281.0558409999999867
 10
75.7966959999999972
 20
280.0621479999999792
 10
75.1873350000000045
 20
278.4605250000000183
 10
74.9842239999999975
 20
276.2743869999999902
 10
75.1873410000000035
 20
274.0843389999999999
 10
75.7966959999999972
 20
272.4710380000000214
 10
76.7989620000000031
 20
271.4890229999999747
 10
78.1542010000000005
 20
271.1616880000000265
 10
79.5027659999999941
 20
271.4890250000000265
 10
80.4850660000000033
 20
272.4710380000000214
 10
81.0944120000000055
 20
274.0765450000000101
 10
81.2975390000000004
 20
276.2743869999999902
 10
81.0944120000000055
 20
278.4722150000000056
 10
80.4850660000000033
 20
280.0777360000000158
 10
79.5027659999999941
 20
281.0597379999999816
 10
78.1542010000000005
 20
281.3870850000000132
  0
LWPOLYLINE
  5
4A
  8
Layer_1
 62
7
370
-1
  6
ByLayer
100
AcDbEntity
100
AcDbPolyline
 90
15
 70
0
 10
97.2672979999999967
 20
280.5141849999999977
 10
98.6491589999999974
 20
280.689534999999978
 10
99.5715249999999941
 20
281.2156229999999937
 10
100.100954999999999
 20
282.143068000000028
 10
100.2774459999999976
 20
283.5225720000000251
 10
100.100954999999999
 20
284.886464999999987
 10
99.5715249999999941
 20
285.7983459999999809
 10
98.6491589999999974
 20
286.312720000000013
 10
97.2672979999999967
 20
286.4841959999999972
 10
96.1884399999999999
 20
286.4841959999999972
 10
95.1095820000000032
 20
286.4841959999999972
 10
95.1095820000000032
 20
283.4991909999999962
 10
95.1095820000000032
 20
280.5141849999999977
 10
96.1884399999999999
 20
280.5141849999999977
 10
97.2672979999999967
 20
280.5141849999999977
  0
LWPOLYLINE
  5
4B
  8
Layer_1
 62
7
370
-1
  6
ByLayer
100
AcDbEntity
100
AcDbPolyline
 90
33
 70
0
 10
95.1095820000000032
 20
276.3679119999999898
 10
95.1095820000000032
 20
271.9644440000000145
 10
95.1095820000000032
 20
267.5609769999999799
 10
92.5456290000000052
 20
267.5609769999999799
 10
89.9816789999999997
 20
267.5609769999999799
 10
89.9816789999999997
 20
279.1970420000000104
 10
89.9816789999999997
 20
290.8331079999999815
 10
93.8975329999999957
 20
290.8331079999999815
 10
97.8133870000000059
 20
290.8331079999999815
 10
101.2164410000000032
 20
290.4472999999999843
 10
103.5672950000000014
 20
289.2899459999999863
 10
104.9458249999999992
 20
287.2986280000000079
 10
105.405350999999996
 20
284.4110590000000229
 10
105.1655910000000063
 20
282.3106339999999932
 10
104.4463650000000001
 20
280.623297999999977
 10
103.2576109999999971
 20
279.3373209999999744
 10
101.5827309999999954
 20
278.4410490000000209
 10
102.5783310000000057
 20
277.9812099999999759
 10
103.4607409999999987
 20
277.162873999999988
 10
104.3031699999999944
 20
275.9236619999999789
 10
105.1522839999999945
 20
274.1700749999999971
 10
106.5441440000000028
 20
270.8655259999999885
 10
107.9360049999999944
 20
267.5609769999999799
 10
105.2055629999999979
 20
267.5609769999999799
 10
102.4751190000000065
 20
267.5609769999999799
 10
101.2630709999999965
 20
270.4524569999999812
 10
100.0510199999999941
 20
273.3439379999999801
 10
99.311791999999997
 20
274.8130540000000224
 10
98.5592649999999963
 20
275.7288239999999746
 10
97.6868470000000002
 20
276.2081329999999753
 10
96.5613799999999998
 20
276.3679119999999898
 10
95.8354810000000015
 20
276.3679119999999898
 10
95.1095820000000032
 20
276.3679119999999898
  0
LWPOLYLINE
  5
4C
  8
Layer_1
 62
7
370
-1
  6
ByLayer
100
AcDbEntity
100
AcDbPolyline
 90
17
 70
0
 10
117.4459379999999982
 20
275.4170740000000137
 10
116.1373169999999959
 20
275.2689869999999814
 10
115.1949879999999951
 20
274.8247499999999945
 10
114.6355760000000004
 20
274.0921319999999923
 10
114.449111000000002
 20
273.0789500000000203
 10
114.5989479999999929
 20
272.1320059999999899
 10
115.0484770000000054
 20
271.4110880000000066
 10
115.7776999999999958
 20
270.9668419999999855
 10
116.7400200000000012
 20
270.8187629999999899
 10
117.978699000000006
 20
271.0993379999999888
 10
119.0042880000000025
 20
271.9410629999999855
 10
119.6935490000000044
 20
273.2192329999999743
 10
119.9233150000000023
 20
274.777986999999996
 10
119.9233150000000023
 20
275.0975310000000036
 10
119.9233150000000023
 20
275.4170740000000137
 10
118.6846249999999969
 20
275.4170740000000137
 10
117.4459379999999982
 20
275.4170740000000137
  0
LWPOLYLINE
  5
4D
  8
Layer_1
 62
7
370
-1
  6
ByLayer
100
AcDbEntity
100
AcDbPolyline
 90
41
 70
0
 10
124.7315600000000018
 20
277.5213860000000068
 10
124.7315600000000018
 20
272.5411809999999946
 10
124.7315600000000018
 20
267.5609769999999799
 10
122.3274389999999983
 20
267.5609769999999799
 10
119.9233150000000023
 20
267.5609769999999799
 10
119.9233150000000023
 20
268.854738999999995
 10
119.9233150000000023
 20
270.1485010000000102
 10
118.9043860000000024
 20
268.7729039999999827
 10
117.7656010000000038
 20
267.825963999999999
 10
116.4370009999999951
 20
267.2881960000000277
 10
114.8486869999999982
 20
267.1089390000000208
 10
112.7475759999999951
 20
267.5025229999999965
 10
111.079346000000001
 20
268.683275999999978
 10
110.0004849999999976
 20
270.5070109999999772
 10
109.6408679999999976
 20
272.7983750000000214
 10
110.0903930000000059
 20
275.4599339999999756
 10
111.4389649999999961
 20
277.3031609999999887
 10
113.7631659999999982
 20
278.378690000000006
 10
117.1129569999999944
 20
278.7372110000000021
 10
118.5181359999999984
 20
278.7372110000000021
 10
119.9233150000000023
 20
278.7372110000000021
 10
119.9233150000000023
 20
278.9554360000000202
 10
119.9233150000000023
 20
279.1736609999999814
 10
119.700209000000001
 20
280.3193319999999744
 10
119.0309270000000055
 20
281.1065100000000143
 10
117.8887969999999967
 20
281.5741249999999809
 10
116.2472080000000005
 20
281.7300099999999929
 10
114.7687679999999943
 20
281.640371000000016
 10
113.3968909999999966
 20
281.3714979999999741
 10
112.1249030000000033
 20
280.9233469999999784
 10
110.9461529999999954
 20
280.295960999999977
 10
110.9461529999999954
 20
282.4236539999999991
 10
110.9461529999999954
 20
284.5513470000000211
 10
112.4811909999999955
 20
284.933226999999988
 10
114.0228960000000029
 20
285.2060220000000186
 10
115.5679200000000009
 20
285.381368000000009
 10
117.1129569999999944
 20
285.4398340000000189
 10
120.5859399999999937
 20
284.9721959999999967
 10
122.9334630000000033
 20
283.5693350000000237
 10
124.2820229999999952
 20
281.1298810000000117
 10
124.7315600000000018
 20
277.5213860000000068
  0
LWPOLYLINE
  5
4E
  8
Layer_1
 62
7
370
-1
  6
ByLayer
100
AcDbEntity
100
AcDbPolyline
 90
27
 70
0
 10
133.9617890000000102
 20
270.0861509999999726
 10
133.9617890000000102
 20
265.5034279999999853
 10
133.9617890000000102
 20
260.9207049999999981
 10
131.5776459999999872
 20
260.9207049999999981
 10
129.1935039999999901
 20
260.9207049999999981
 10
129.1935039999999901
 20
272.9698379999999815
 10
129.1935039999999901
 20
285.0189720000000193
 10
131.5776459999999872
 20
285.0189720000000193
 10
133.9617890000000102
 20
285.0189720000000193
 10
133.9617890000000102
 20
283.7407969999999864
 10
133.9617890000000102
 20
282.4626230000000078
 10
135.0006830000000093
 20
283.7875470000000178
 10
136.1461439999999925
 20
284.7072220000000016
 10
137.4347720000000095
 20
285.2566679999999906
 10
138.903224999999992
 20
285.4398340000000189
 10
141.4138900000000092
 20
284.7968369999999823
 10
143.4317629999999895
 20
282.8678970000000277
 10
144.7603450000000009
 20
279.9413349999999809
 10
145.2032220000000109
 20
276.2743869999999902
 10
144.7603450000000009
 20
272.603527999999983
 10
143.4317629999999895
 20
269.6652879999999755
 10
141.4138900000000092
 20
267.7480269999999791
 10
138.903224999999992
 20
267.1089390000000208
 10
137.4347720000000095
 20
267.2881949999999733
 10
136.1461439999999925
 20
267.825963999999999
 10
135.0006830000000093
 20
268.757316000000003
 10
133.9617890000000102
 20
270.0861509999999726
  0
LWPOLYLINE
  5
4F
  8
Layer_1
 62
7
370
-1
  6
ByLayer
100
AcDbEntity
100
AcDbPolyline
 90
17
 70
0
 10
137.1317659999999989
 20
281.3870850000000132
 10
135.7765280000000132
 20
281.0558409999999867
 10
134.7742619999999931
 20
280.0621479999999792
 10
134.1649009999999862
 20
278.4605250000000183
 10
133.9617890000000102
 20
276.2743869999999902
 10
134.1649089999999944
 20
274.0843389999999999
 10
134.7742619999999931
 20
272.4710380000000214
 10
135.7765280000000132
 20
271.4890229999999747
 10
137.1317659999999989
 20
271.1616880000000265
 10
138.4803310000000067
 20
271.4890250000000265
 10
139.4626320000000135
 20
272.4710380000000214
 10
140.071977000000004
 20
274.0765450000000101
 10
140.2751069999999913
 20
276.2743869999999902
 10
140.071977000000004
 20
278.4722150000000056
 10
139.4626320000000135
 20
280.0777360000000158
 10
138.4803310000000067
 20
281.0597379999999816
 10
137.1317659999999989
 20
281.3870850000000132
  0
LWPOLYLINE
  5
50
  8
Layer_1
 62
7
370
-1
  6
ByLayer
100
AcDbEntity
100
AcDbPolyline
 90
41
 70
0
 10
15.6078060000000001
 20
267.6452679999999873
 10
14.1311260000000001
 20
267.9886960000000045
 10
12.6839770000000005
 20
268.5903680000000122
 10
11.3271979999999992
 20
269.419241999999997
 10
10.1216299999999997
 20
270.444279999999992
 10
8.1019279999999991
 20
273.3193459999999959
 10
7.2457269999999996
 20
276.5626599999999939
 10
7.5745089999999999
 20
279.9059480000000235
 10
9.1097560000000009
 20
283.0809360000000083
 10
9.7192059999999998
 20
283.8216189999999983
 10
10.745533
 20
284.9527659999999969
 10
12.0454760000000007
 20
286.3204900000000066
 10
13.4757739999999995
 20
287.7708979999999883
 10
14.3531820000000003
 20
288.6439020000000255
 10
15.2305899999999994
 20
289.5169050000000084
 10
16.1079979999999985
 20
290.3899089999999887
 10
16.9854060000000011
 20
291.2629119999999716
 10
17.9861649999999997
 20
290.2651220000000194
 10
18.9869230000000009
 20
289.2673320000000103
 10
19.9876819999999995
 20
288.2695429999999988
 10
20.9884410000000017
 20
287.2717529999999897
 10
23.1719299999999997
 20
285.0716519999999718
 10
24.479966000000001
 20
283.6611909999999739
 10
25.2394299999999987
 20
282.6589050000000043
 10
25.7772010000000016
 20
281.6833280000000173
 10
26.5413150000000009
 20
279.7015860000000202
 10
26.8560149999999993
 20
277.7438599999999838
 10
26.7238119999999988
 20
275.7559079999999767
 10
26.1472140000000017
 20
273.6834860000000162
 10
25.6649670000000008
 20
272.7116030000000251
 10
24.9417650000000002
 20
271.6205039999999826
 10
24.1028519999999986
 20
270.5810109999999895
 10
23.2734750000000012
 20
269.7639500000000226
 10
21.5877680000000005
 20
268.6518300000000181
 10
19.6989330000000002
 20
267.9143779999999992
 10
17.6809520000000013
 20
267.5720430000000079
 10
15.6078060000000001
 20
267.6452679999999873
 10
15.6078060000000001
 20
267.6452679999999873
 10
15.6078060000000001
 20
267.6452679999999873
 10
15.6078060000000001
 20
267.6452679999999873
 10
15.6078060000000001
 20
267.6452679999999873
  0
ENDSEC
  0
SECTION
  2
OBJECTS
  0
DICTIONARY
  5
C
100
AcDbDictionary
280
0
281
1
  3
ACAD_GROUP
350
D
  3
ACAD_LAYOUT
350
1A
  3
ACAD_MLINESTYLE
350
17
  3
ACAD_PLOTSETTINGS
350
19
  3
ACAD_PLOTSTYLENAME
350
E
  3
AcDbVariableDictionary
350
51
  0
DICTIONARY
  5
D
100
AcDbDictionary
280
0
281
1
  0
ACDBDICTIONARYWDFLT
  5
E
100
AcDbDictionary
281
1
  3
Normal
350
F
100
AcDbDictionaryWithDefault
340
F
  0
ACDBPLACEHOLDER
  5
F
  0
DICTIONARY
  5
17
100
AcDbDictionary
280
0
281
1
  3
Standard
350
18
  0
MLINESTYLE
  5
18
100
AcDbMlineStyle
  2
STANDARD
 70
0
  3

 62
256
 51
90.0
 52
90.0
 71
2
 49
0.5
 62
256
  6
BYLAYER
 49
-0.5
 62
256
  6
BYLAYER
  0
DICTIONARY
  5
19
100
AcDbDictionary
280
0
281
1
  0
DICTIONARY
  5
1A
100
AcDbDictionary
281
1
  3
Layout1
350
1E
  3
Layout2
350
26
  3
Model
350
22
  0
LAYOUT
  5
1E
100
AcDbPlotSettings
  1

  2
C:\Program Files\AutoCAD 2002\plotters\DWF ePlot (optimized for plotting).pc3
  4

  6

 40
0.0
 41
0.0
 42
0.0
 43
0.0
 44
0.0
 45
0.0
 46
0.0
 47
0.0
 48
0.0
 49
0.0
140
0.0
141
0.0
142
1.0
143
1.0
 70
688
 72
0
 73
0
 74
5
  7

 75
16
147
1.0
148
0.0
149
0.0
100
AcDbLayout
  1
Layout1
 70
1
 71
1
 10
0.0
 20
0.0
 11
420.0
 21
297.0
 12
0.0
 22
0.0
 32
0.0
 14
100000000000000000000.0
 24
100000000000000000000.0
 34
100000000000000000000.0
 15
-100000000000000000000.0
 25
-100000000000000000000.0
 35
-100000000000000000000.0
146
0.0
 13
0.0
 23
0.0
 33
0.0
 16
1.0
 26
0.0
 36
0.0
 17
0.0
 27
1.0
 37
0.0
 76
0
330
1B
  0
LAYOUT
  5
22
100
AcDbPlotSettings
  1

  2
C:\Program Files\AutoCAD 2002\plotters\DWF ePlot (optimized for plotting).pc3
  4

  6

 40
0.0
 41
0.0
 42
0.0
 43
0.0
 44
0.0
 45
0.0
 46
0.0
 47
0.0
 48
0.0
 49
0.0
140
0.0
141
0.0
142
1.0
143
1.0
 70
1712
 72
0
 73
0
 74
0
  7

 75
0
147
1.0
148
0.0
149
0.0
100
AcDbLayout
  1
Model
 70
1
 71
0
 10
0.0
 20
0.0
 11
12.0
 21
9.0
 12
0.0
 22
0.0
 32
0.0
 14
0.0
 24
0.0
 34
0.0
 15
0.0
 25
0.0
 35
0.0
146
0.0
 13
0.0
 23
0.0
 33
0.0
 16
1.0
 26
0.0
 36
0.0
 17
0.0
 27
1.0
 37
0.0
 76
0
330
1F
  0
LAYOUT
  5
26
100
AcDbPlotSettings
  1

  2
C:\Program Files\AutoCAD 2002\plotters\DWF ePlot (optimized for plotting).pc3
  4

  6

 40
0.0
 41
0.0
 42
0.0
 43
0.0
 44
0.0
 45
0.0
 46
0.0
 47
0.0
 48
0.0
 49
0.0
140
0.0
141
0.0
142
1.0
143
1.0
 70
688
 72
0
 73
0
 74
5
  7

 75
16
147
1.0
148
0.0
149
0.0
100
AcDbLayout
  1
Layout2
 70
1
 71
2
 10
0.0
 20
0.0
 11
12.0
 21
9.0
 12
0.0
 22
0.0
 32
0.0
 14
0.0
 24
0.0
 34
0.0
 15
0.0
 25
0.0
 35
0.0
146
0.0
 13
0.0
 23
0.0
 33
0.0
 16
1.0
 26
0.0
 36
0.0
 17
0.0
 27
1.0
 37
0.0
 76
0
330
23
  0
DICTIONARY
  5
51
100
AcDbDictionary
281
1
  3
DIMASSOC
350
53
  3
HIDETEXT
350
52
  0
DICTIONARYVAR
  5
52
100
DictionaryVariables
280
0
  1
2
  0
DICTIONARYVAR
  5
53
100
DictionaryVariables
280
0
  1
1
  0
ENDSEC
  0
EOF
