/* XPM */
static char * reprap_xpm[] = {
"30 32 33 1",
" 	c None",
".	c #F8F8F8",
"+	c #FDFAFD",
"@	c #E1EFE1",
"#	c #4EB24E",
"$	c #008D00",
"%	c #1B9D1B",
"&	c #BDE0BD",
"*	c #FFFDFF",
"=	c #F9F9F9",
"-	c #009200",
";	c #019101",
">	c #28A228",
",	c #C4E3C4",
"'	c #E7F1E7",
")	c #CAE5CA",
"!	c #38A938",
"~	c #EDF3ED",
"{	c #D4E9D4",
"]	c #44AE44",
"^	c #F2F5F2",
"/	c #59B759",
"(	c #DBECDB",
"_	c #F6F7F6",
":	c #8FCD8F",
"<	c #69BD69",
"[	c #109910",
"}	c #A8D7A8",
"|	c #099509",
"1	c #B3DCB3",
"2	c #86C986",
"3	c #7BC57B",
"4	c #9CD29C",
"...........+@#$%&*............",
"..........=@#$-;>&*...........",
".........=@#$---$>,*..........",
"........='#$-----$>)*.........",
".......='#$-------$!,*........",
".......'#$---------$!)*.......",
"......~#$-----------$!{*......",
".....~#$-------------$!{*.....",
"....~#;---------------$]{*....",
"...^/;-----------------$#(*...",
".._:$-------------------$<^+..",
"..@%;-------------------$[}*..",
"..<;---------------------$#@*.",
".'|----------------------$%1*.",
".1;----------------------;$2*.",
".3;-----------------------$/'+",
".];-----------------------$!,*",
".%------------------------$>&*",
".%------------------------$>&*",
".>------------------------$>&*",
".];-----------------------$>&*",
".2;-----------------------$]{*",
".,;-----------------------$3+=",
".^%;---------------------$[}*.",
"..3;---------------------$]{*.",
"..'%;-------------------;|:*=.",
".._4$-------------------$<^+..",
"...^];-----------------$]{*...",
"....@#;---------------$>&*....",
".....^3;------------;-#{*.....",
"......^4>;---------->:^=......",
"........~}#[;||||%/1~=........"};
